<?xml version="1.0" encoding="UTF-8" standalone="no"?>
<!-- Created with Inkscape (http://www.inkscape.org/) -->
<svg id="svg2" xmlns:rdf="http://www.w3.org/1999/02/22-rdf-syntax-ns#" xmlns="http://www.w3.org/2000/svg" height="498.22" width="498.22" version="1.1" xmlns:cc="http://creativecommons.org/ns#" xmlns:dc="http://purl.org/dc/elements/1.1/">
<metadata id="metadata7">
<rdf:RDF>
<cc:Work rdf:about="">
<dc:format>image/svg+xml</dc:format>
<dc:type rdf:resource="http://purl.org/dc/dcmitype/StillImage"/>
<dc:title/>
</cc:Work>
</rdf:RDF>
</metadata>
<g id="layer1" transform="translate(-88.21875,-122.84273)">
<g id="g3804" fill="#000" transform="translate(0,-121.39005)">
<path id="path3801" d="m379.28,378.12c1.668,0.77461,3.3589,1.5028,4.9688,2.375,2.5414,1.3768,4.9906,2.8922,7.375,4.5s4.6936,3.3322,6.9062,5.1562c2.2126,1.8241,4.349,3.7558,6.375,5.7812,2.026,2.0255,3.9566,4.1316,5.7812,6.3438,1.8247,2.2121,3.5477,4.5223,5.1562,6.9062,1.6085,2.384,3.0911,4.834,4.4688,7.375,1.3776,2.541,2.6494,5.1604,3.7812,7.8438,1.1319,2.6833,2.1286,5.4392,3,8.25,0.87141,2.8108,1.5914,5.6702,2.1875,8.5938,0.59612,2.9235,1.069,5.9161,1.375,8.9375,0.30605,3.0214,0.46756,6.083,0.46875,9.1875l25.812-0.0312c-0.002-3.9765-0.19709-7.9067-0.59375-11.781-0.39666-3.8746-0.97778-7.6845-1.75-11.438-0.77222-3.753-1.7468-7.4505-2.875-11.062-1.1282-3.612-2.4103-7.1424-3.875-10.594-1.4647-3.4514-3.0934-6.8225-4.875-10.094-1.7816-3.2713-3.7336-6.4284-5.8125-9.5-0.91033-1.345-1.9416-2.6022-2.9062-3.9062-16.979-5.715-35.343-10.227-54.969-12.844z" style="baseline-shift:baseline;block-progression:tb;color:#000000;direction:ltr;text-indent:0;text-align:start;enable-background:accumulate;text-transform:none;"/>
<path id="path3795" d="m248.88,390.66c-1.0582,1.4194-2.1939,2.7817-3.1875,4.25-2.0795,3.0731-4.0306,6.2272-5.8125,9.5s-3.4103,6.6409-4.875,10.094c-1.4647,3.4529-2.7471,7.0116-3.875,10.625s-2.1035,7.2769-2.875,11.031c-0.77154,3.7544-1.3544,7.593-1.75,11.469-0.39557,3.8758-0.59375,7.8036-0.59375,11.781,0,3.9776,0.19818,7.9055,0.59375,11.781,0.39557,3.8758,0.97846,7.6831,1.75,11.438,0.77154,3.7544,1.7471,7.4491,2.875,11.062,1.1279,3.6134,2.4103,7.1721,3.875,10.625s3.0931,6.821,4.875,10.094c1.7819,3.2728,3.733,6.4269,5.8125,9.5s4.2988,6.0524,6.6562,8.9062,4.8529,5.6037,7.4688,8.2188c2.6158,2.615,5.3641,5.0809,8.2188,7.4375,2.8546,2.3566,5.8011,4.6088,8.875,6.6875s6.2578,4.0001,9.5312,5.7812c3.2735,1.7812,6.6403,3.4109,10.094,4.875,3.4535,1.4641,7.0111,2.7476,10.625,3.875s7.2765,2.1038,11.031,2.875c3.7547,0.77117,7.5928,1.3546,11.469,1.75,3.876,0.39537,7.8036,0.59375,11.781,0.59375,3.9776,0,7.9055-0.19838,11.781-0.59375,3.8758-0.39537,7.7144-0.97883,11.469-1.75,3.7544-0.77117,7.4178-1.7476,11.031-2.875,3.6134-1.1274,7.1721-2.4109,10.625-3.875s6.821-3.0938,10.094-4.875c3.2728-1.7812,6.4269-3.7026,9.5-5.7812,3.0731-2.0787,6.0524-4.3309,8.9062-6.6875s5.6037-4.8225,8.2188-7.4375c2.615-2.615,5.1121-5.3649,7.4688-8.2188,2.3566-2.8538,4.5776-5.8332,6.6562-8.9062,2.0787-3.0731,4.0001-6.2272,5.7812-9.5,1.7812-3.2728,3.4109-6.6409,4.875-10.094,1.4641-3.4529,2.7788-7.0116,3.9062-10.625s2.0726-7.3081,2.8438-11.062c0.77117-3.7544,1.3546-7.5617,1.75-11.438,0.39537-3.8758,0.59375-7.8036,0.59375-11.781h-25.812c0,3.1054-0.1637,6.1652-0.46875,9.1875s-0.74845,6.0132-1.3438,8.9375c-0.5953,2.9243-1.348,5.7821-2.2188,8.5938-0.87075,2.8116-1.8686,5.5659-3,8.25s-2.404,5.302-3.7812,7.8438c-1.3773,2.5418-2.8604,5.0216-4.4688,7.4062-1.6084,2.3847-3.3316,4.6622-5.1562,6.875s-3.7551,4.3489-5.7812,6.375-4.1309,3.9566-6.3438,5.7812c-2.2128,1.8246-4.5216,3.5479-6.9062,5.1562-2.3847,1.6084-4.8644,3.0915-7.4062,4.4688s-5.1596,2.6498-7.8438,3.7812c-2.6841,1.1314-5.4384,2.1292-8.25,3-2.8116,0.87075-5.6694,1.6234-8.5938,2.2188-2.9243,0.5953-5.9152,1.0387-8.9375,1.3438-3.0223,0.30505-6.0821,0.46875-9.1875,0.46875s-6.165-0.1637-9.1875-0.46875c-3.0224-0.30505-6.0128-0.74845-8.9375-1.3438-2.9247-0.5953-5.7816-1.348-8.5938-2.2188-2.8121-0.87075-5.5653-1.8686-8.25-3s-5.3012-2.404-7.8438-3.7812c-2.5425-1.3773-5.0208-2.8604-7.4062-4.4688-2.3855-1.6084-4.6926-3.3316-6.9062-5.1562s-4.3168-3.7551-6.3438-5.7812-3.987-4.1622-5.8125-6.375-3.5159-4.4903-5.125-6.875-3.122-4.8644-4.5-7.4062-2.6492-5.1596-3.7812-7.8438c-1.132-2.6841-2.1287-5.4384-3-8.25-0.87126-2.8116-1.5918-5.6694-2.1875-8.5938-0.59566-2.9243-1.0698-5.9152-1.375-8.9375-0.30524-3.0223-0.46875-6.0821-0.46875-9.1875s0.16351-6.1652,0.46875-9.1875,0.77934-6.0132,1.375-8.9375,1.3162-5.7821,2.1875-8.5938c0.87126-2.8116,1.868-5.5659,3-8.25s2.4032-5.302,3.7812-7.8438,2.8909-5.0216,4.5-7.4062c1.6091-2.3847,3.2995-4.6934,5.125-6.9062s3.7855-4.3176,5.8125-6.3438c2.027-2.0261,4.1301-3.9566,6.3438-5.7812,2.2136-1.8246,4.5208-3.5479,6.9062-5.1562,2.3855-1.6084,4.8637-3.0915,7.4062-4.4688,1.5998-0.86661,3.2803-1.6046,4.9375-2.375-19.4,2.5604-37.645,6.988-54.688,12.5z" style="baseline-shift:baseline;block-progression:tb;color:#000000;direction:ltr;text-indent:0;text-align:start;enable-background:accumulate;text-transform:none;"/>
<path id="path2985" style="baseline-shift:baseline;block-progression:tb;color:#000000;direction:ltr;text-indent:0;text-align:start;enable-background:accumulate;text-transform:none;" d="m340.75,405.62c99.209-0.38199,169.7,57.018,194.19,80.156-26.908,25.684-107.15,95.185-190.22,95.281-98.44,0.11403-156.2-47.811-203.84-94.438,26.13-23.171,100.63-80.618,199.88-81zm-91.87-14.96c-86.51,27.97-140.6,85.34-140.6,85.34l-10.062,10.625,10.344,10.312c50.401,50.276,119.31,114.26,236.19,114.12,121.37-0.14058,222.66-115.12,222.66-115.12l9.03-9.93-8.875-10.094s-49.839-56.84-133.31-84.938c0.96464,1.304,1.9959,2.5612,2.9062,3.9062,2.0789,3.0716,4.0309,6.2287,5.8125,9.5s3.4103,6.6424,4.875,10.094c1.4647,3.4514,2.7468,6.9818,3.875,10.594,1.1282,3.612,2.1028,7.3095,2.875,11.062,0.77222,3.753,1.3533,7.5629,1.75,11.438,0.39666,3.8746,0.59222,7.8047,0.59375,11.781l-25.812,0.0312c-0.001-3.1045-0.1627-6.1661-0.46875-9.1875s-0.77888-6.014-1.375-8.9375-1.3161-5.783-2.1875-8.5938c-0.87141-2.8108-1.8681-5.5667-3-8.25s-2.4036-5.3027-3.7812-7.8438c-1.3776-2.541-2.8602-4.991-4.4688-7.375-1.6085-2.384-3.3316-4.6941-5.1562-6.9062-1.8247-2.2121-3.7552-4.3183-5.7812-6.3438s-4.1624-3.9572-6.375-5.7812c-2.2126-1.8241-4.5219-3.5484-6.9062-5.1562-2.3844-1.6078-4.8336-3.1232-7.375-4.5-1.6098-0.87215-3.3008-1.6004-4.9688-2.375-12.396-1.653-25.293-2.5514-38.656-2.5-12.749,0.0491-25.108,0.95352-37.062,2.5312-1.6572,0.77036-3.3377,1.5084-4.9375,2.375-2.5425,1.3773-5.0208,2.8604-7.4062,4.4688-2.3855,1.6084-4.6926,3.3316-6.9062,5.1562s-4.3168,3.7551-6.3438,5.7812-3.987,4.1309-5.8125,6.3438c-1.8255,2.2128-3.5159,4.5216-5.125,6.9062-1.6091,2.3847-3.122,4.8644-4.5,7.4062s-2.6492,5.1596-3.7812,7.8438c-1.132,2.6841-2.1287,5.4384-3,8.25-0.87126,2.8116-1.5918,5.6694-2.1875,8.5938-0.59566,2.9243-1.0698,5.9152-1.375,8.9375-0.30524,3.0223-0.46875,6.0821-0.46875,9.1875s0.16351,6.1652,0.46875,9.1875,0.77934,6.0132,1.375,8.9375,1.3162,5.7821,2.1875,8.5938c0.87126,2.8116,1.868,5.5659,3,8.25s2.4032,5.302,3.7812,7.8438,2.8909,5.0216,4.5,7.4062c1.6091,2.3847,3.2995,4.6622,5.125,6.875s3.7855,4.3489,5.8125,6.375,4.1301,3.9566,6.3438,5.7812c2.2136,1.8246,4.5208,3.5479,6.9062,5.1562,2.3855,1.6084,4.8637,3.0915,7.4062,4.4688s5.159,2.6498,7.8438,3.7812c2.6847,1.1314,5.4379,2.1292,8.25,3,2.8121,0.87075,5.669,1.6234,8.5938,2.2188,2.9247,0.5953,5.915,1.0387,8.9375,1.3438,3.0224,0.30505,6.0821,0.46875,9.1875,0.46875s6.1652-0.1637,9.1875-0.46875,6.0132-0.74845,8.9375-1.3438c2.9243-0.5953,5.7821-1.348,8.5938-2.2188,2.8116-0.87075,5.5659-1.8686,8.25-3s5.302-2.404,7.8438-3.7812c2.5418-1.3773,5.0216-2.8604,7.4062-4.4688,2.3847-1.6084,4.6934-3.3316,6.9062-5.1562s4.3176-3.7551,6.3438-5.7812c2.0261-2.0261,3.9566-4.1622,5.7812-6.375s3.5479-4.4903,5.1562-6.875c1.6084-2.3847,3.0915-4.8644,4.4688-7.4062s2.6498-5.1596,3.7812-7.8438c1.1314-2.6841,2.1292-5.4384,3-8.25,0.87075-2.8116,1.6234-5.6694,2.2188-8.5938,0.5953-2.9243,1.0387-5.9152,1.3438-8.9375,0.30505-3.0223,0.46875-6.0821,0.46875-9.1875h25.812c0,3.9776-0.19838,7.9055-0.59375,11.781-0.39537,3.8758-0.97883,7.6831-1.75,11.438-0.77117,3.7544-1.7164,7.4491-2.8438,11.062-1.1274,3.6134-2.4422,7.1721-3.9062,10.625-1.4641,3.4529-3.0938,6.821-4.875,10.094-1.7812,3.2728-3.7026,6.4269-5.7812,9.5-2.0787,3.0731-4.2996,6.0524-6.6562,8.9062s-4.8537,5.6037-7.4688,8.2188c-2.615,2.615-5.3649,5.0809-8.2188,7.4375-2.8538,2.3566-5.8332,4.6088-8.9062,6.6875-3.0731,2.0787-6.2272,4.0001-9.5,5.7812-3.2728,1.7812-6.6409,3.4109-10.094,4.875-3.4529,1.4641-7.0116,2.7476-10.625,3.875s-7.2769,2.1038-11.031,2.875c-3.7544,0.77117-7.593,1.3546-11.469,1.75-3.8758,0.39537-7.8036,0.59375-11.781,0.59375-3.9776,0-7.9053-0.19838-11.781-0.59375-3.876-0.39537-7.714-0.97883-11.469-1.75-3.7547-0.77117-7.4173-1.7476-11.031-2.875-3.6139-1.1274-7.1715-2.4109-10.625-3.875s-6.8203-3.0938-10.094-4.875c-3.2735-1.7812-6.4574-3.7026-9.5312-5.7812-3.0739-2.0787-6.0204-4.3309-8.875-6.6875s-5.6029-4.8225-8.2188-7.4375c-2.6158-2.615-5.1113-5.3649-7.4688-8.2188-2.3574-2.8538-4.5768-5.8332-6.6562-8.9062-2.0795-3.0731-4.0306-6.2272-5.8125-9.5s-3.4103-6.6409-4.875-10.094c-1.4647-3.4529-2.7471-7.0116-3.875-10.625s-2.1035-7.3081-2.875-11.062c-0.77154-3.7544-1.3544-7.5617-1.75-11.438-0.39557-3.8758-0.59375-7.8036-0.59375-11.781,0-3.9776,0.19818-7.9055,0.59375-11.781,0.39557-3.8758,0.97846-7.7144,1.75-11.469,0.77154-3.7544,1.7471-7.4178,2.875-11.031,1.1279-3.6134,2.4103-7.1721,3.875-10.625s3.0931-6.821,4.875-10.094c1.7819-3.2728,3.733-6.4269,5.8125-9.5,0.99356-1.4683,2.1293-2.8306,3.1875-4.25z"/>
<path id="path3761" d="m341.42,424.19c-19.264,0-35.188,15.954-35.188,35.219,0,19.264,15.923,35.188,35.188,35.188,19.264,0,35.219-15.923,35.219-35.188-0.007-19.259-15.959-35.219-35.219-35.219zm0,30c3.0502,0,5.2176,2.1685,5.2188,5.2188,0,3.0512-2.1675,5.1875-5.2188,5.1875-3.0512,0-5.1875-2.1363-5.1875-5.1875s2.1363-5.2188,5.1875-5.2188z" style="baseline-shift:baseline;block-progression:tb;color:#000000;direction:ltr;text-indent:0;text-align:start;enable-background:accumulate;text-transform:none;"/>
</g>
</g>
</svg>
