<?xml version="1.0" encoding="UTF-8" standalone="no"?>
<!-- Created with Inkscape (http://www.inkscape.org/) -->

<svg
   xmlns:dc="http://purl.org/dc/elements/1.1/"
   xmlns:cc="http://creativecommons.org/ns#"
   xmlns:rdf="http://www.w3.org/1999/02/22-rdf-syntax-ns#"
   xmlns:svg="http://www.w3.org/2000/svg"
   xmlns="http://www.w3.org/2000/svg"
   xmlns:sodipodi="http://sodipodi.sourceforge.net/DTD/sodipodi-0.dtd"
   xmlns:inkscape="http://www.inkscape.org/namespaces/inkscape"
   width="498.22"
   height="498.22"
   id="svg2"
   version="1.1"
   inkscape:version="0.48.2 r9819"
   sodipodi:docname="eye.svg">
  <defs
     id="defs4" />
  <sodipodi:namedview
     id="base"
     pagecolor="#ffffff"
     bordercolor="#666666"
     borderopacity="1.0"
     inkscape:pageopacity="0.0"
     inkscape:pageshadow="2"
     inkscape:zoom="0.98994949"
     inkscape:cx="129.19745"
     inkscape:cy="252.11896"
     inkscape:document-units="px"
     inkscape:current-layer="layer1"
     showgrid="false"
     inkscape:window-width="1366"
     inkscape:window-height="746"
     inkscape:window-x="-8"
     inkscape:window-y="-8"
     inkscape:window-maximized="1"
     fit-margin-top="10"
     fit-margin-right="10"
     fit-margin-bottom="10"
     fit-margin-left="10" />
  <metadata
     id="metadata7">
    <rdf:RDF>
      <cc:Work
         rdf:about="">
        <dc:format>image/svg+xml</dc:format>
        <dc:type
           rdf:resource="http://purl.org/dc/dcmitype/StillImage" />
        <dc:title></dc:title>
      </cc:Work>
    </rdf:RDF>
  </metadata>
  <g
     inkscape:label="Layer 1"
     inkscape:groupmode="layer"
     id="layer1"
     transform="translate(-88.21875,-122.84273)">
    <g
       id="g3804"
       transform="translate(0,-121.39005)">
      <path
         inkscape:connector-curvature="0"
         id="path3801"
         d="m 379.28125,378.125 c 1.66796,0.77461 3.35894,1.50285 4.96875,2.375 2.54137,1.37684 4.99062,2.89215 7.375,4.5 2.38438,1.60785 4.69365,3.33219 6.90625,5.15625 2.2126,1.82406 4.34897,3.75576 6.375,5.78125 2.02603,2.02549 3.95657,4.13162 5.78125,6.34375 1.82468,2.21213 3.54771,4.52227 5.15625,6.90625 1.60854,2.38398 3.09113,4.83396 4.46875,7.375 1.37762,2.54104 2.64935,5.16043 3.78125,7.84375 1.1319,2.68332 2.12859,5.4392 3,8.25 0.87141,2.8108 1.59138,5.67025 2.1875,8.59375 0.59612,2.9235 1.06895,5.91609 1.375,8.9375 0.30605,3.02141 0.46756,6.08297 0.46875,9.1875 l 25.8125,-0.0312 c -0.002,-3.97653 -0.19709,-7.90669 -0.59375,-11.78125 -0.39666,-3.87456 -0.97778,-7.68446 -1.75,-11.4375 -0.77222,-3.75304 -1.74677,-7.45051 -2.875,-11.0625 -1.12823,-3.61199 -2.41032,-7.14235 -3.875,-10.59375 -1.46468,-3.4514 -3.09343,-6.82249 -4.875,-10.09375 -1.78157,-3.27126 -3.7336,-6.42842 -5.8125,-9.5 -0.91033,-1.34501 -1.94161,-2.60222 -2.90625,-3.90625 -16.9787,-5.71497 -35.34275,-10.2266 -54.96875,-12.84375 z"
         style="font-size:medium;font-style:normal;font-variant:normal;font-weight:normal;font-stretch:normal;text-indent:0;text-align:start;text-decoration:none;line-height:normal;letter-spacing:normal;word-spacing:normal;text-transform:none;direction:ltr;block-progression:tb;writing-mode:lr-tb;text-anchor:start;baseline-shift:baseline;color:#000000;fill:#000000;fill-opacity:1;stroke:none;stroke-width:30;marker:none;visibility:visible;display:inline;overflow:visible;enable-background:accumulate;font-family:Sans;-inkscape-font-specification:Sans" />
      <path
         inkscape:connector-curvature="0"
         id="path3795"
         d="m 248.875,390.65625 c -1.05819,1.41941 -2.19394,2.7817 -3.1875,4.25 -2.07946,3.07307 -4.03063,6.22725 -5.8125,9.5 -1.78187,3.27275 -3.41031,6.64089 -4.875,10.09375 -1.46469,3.45286 -2.74709,7.0116 -3.875,10.625 -1.12791,3.6134 -2.10346,7.27688 -2.875,11.03125 -0.77154,3.75437 -1.35443,7.59298 -1.75,11.46875 -0.39557,3.87577 -0.59375,7.80365 -0.59375,11.78125 0,3.9776 0.19818,7.90548 0.59375,11.78125 0.39557,3.87577 0.97846,7.68313 1.75,11.4375 0.77154,3.75437 1.74709,7.4491 2.875,11.0625 1.12791,3.6134 2.41031,7.17214 3.875,10.625 1.46469,3.45286 3.09313,6.821 4.875,10.09375 1.78187,3.27275 3.73304,6.42693 5.8125,9.5 2.07946,3.07307 4.2988,6.05242 6.65625,8.90625 2.35745,2.85383 4.8529,5.60374 7.46875,8.21875 2.61585,2.61501 5.3641,5.08087 8.21875,7.4375 2.85465,2.35663 5.80114,4.60883 8.875,6.6875 3.07386,2.07867 6.25778,4.0001 9.53125,5.78125 3.27347,1.78115 6.64026,3.41094 10.09375,4.875 3.45349,1.46406 7.01109,2.7476 10.625,3.875 3.61391,1.1274 7.27652,2.10383 11.03125,2.875 3.75473,0.77117 7.59279,1.35463 11.46875,1.75 3.87596,0.39537 7.80365,0.59375 11.78125,0.59375 3.9776,0 7.90548,-0.19838 11.78125,-0.59375 3.87577,-0.39537 7.71438,-0.97883 11.46875,-1.75 3.75437,-0.77117 7.41785,-1.7476 11.03125,-2.875 3.6134,-1.1274 7.17214,-2.41094 10.625,-3.875 3.45286,-1.46406 6.821,-3.09385 10.09375,-4.875 3.27275,-1.78115 6.42693,-3.70258 9.5,-5.78125 3.07307,-2.07867 6.05242,-4.33087 8.90625,-6.6875 2.85383,-2.35663 5.60374,-4.82249 8.21875,-7.4375 2.61501,-2.61501 5.11212,-5.36492 7.46875,-8.21875 2.35663,-2.85383 4.57758,-5.83318 6.65625,-8.90625 2.07867,-3.07307 4.0001,-6.22725 5.78125,-9.5 1.78115,-3.27275 3.41094,-6.64089 4.875,-10.09375 1.46406,-3.45286 2.77885,-7.0116 3.90625,-10.625 1.1274,-3.6134 2.07258,-7.30813 2.84375,-11.0625 0.77117,-3.75437 1.35463,-7.56173 1.75,-11.4375 0.39537,-3.87577 0.59375,-7.80365 0.59375,-11.78125 l -25.8125,0 c 0,3.10538 -0.1637,6.16524 -0.46875,9.1875 -0.30505,3.02226 -0.74845,6.01317 -1.34375,8.9375 -0.5953,2.92433 -1.348,5.78213 -2.21875,8.59375 -0.87075,2.81162 -1.86859,5.56589 -3,8.25 -1.13141,2.68411 -2.40397,5.30195 -3.78125,7.84375 -1.37728,2.5418 -2.8604,5.02155 -4.46875,7.40625 -1.60835,2.3847 -3.33162,4.66219 -5.15625,6.875 -1.82463,2.21281 -3.75513,4.34888 -5.78125,6.375 -2.02612,2.02612 -4.13094,3.95662 -6.34375,5.78125 -2.21281,1.82463 -4.52155,3.5479 -6.90625,5.15625 -2.3847,1.60835 -4.86445,3.09147 -7.40625,4.46875 -2.5418,1.37728 -5.15964,2.64984 -7.84375,3.78125 -2.68411,1.13141 -5.43838,2.12925 -8.25,3 -2.81162,0.87075 -5.66942,1.62345 -8.59375,2.21875 -2.92433,0.5953 -5.91524,1.0387 -8.9375,1.34375 -3.02226,0.30505 -6.08212,0.46875 -9.1875,0.46875 -3.10538,0 -6.16505,-0.1637 -9.1875,-0.46875 -3.02245,-0.30505 -6.0128,-0.74845 -8.9375,-1.34375 -2.9247,-0.5953 -5.78162,-1.348 -8.59375,-2.21875 -2.81213,-0.87075 -5.56526,-1.86859 -8.25,-3 -2.68474,-1.13141 -5.30123,-2.40397 -7.84375,-3.78125 -2.54252,-1.37728 -5.02076,-2.8604 -7.40625,-4.46875 -2.38549,-1.60835 -4.69262,-3.33162 -6.90625,-5.15625 -2.21363,-1.82463 -4.31679,-3.75513 -6.34375,-5.78125 -2.02696,-2.02612 -3.98704,-4.16219 -5.8125,-6.375 -1.82546,-2.21281 -3.51586,-4.4903 -5.125,-6.875 -1.60914,-2.3847 -3.122,-4.86445 -4.5,-7.40625 -1.378,-2.5418 -2.64921,-5.15964 -3.78125,-7.84375 -1.13204,-2.68411 -2.12874,-5.43838 -3,-8.25 -0.87126,-2.81162 -1.59184,-5.66942 -2.1875,-8.59375 -0.59566,-2.92433 -1.06976,-5.91524 -1.375,-8.9375 -0.30524,-3.02226 -0.46875,-6.08212 -0.46875,-9.1875 0,-3.10539 0.16351,-6.16524 0.46875,-9.1875 0.30524,-3.02226 0.77934,-6.01317 1.375,-8.9375 0.59566,-2.92433 1.31624,-5.78213 2.1875,-8.59375 0.87126,-2.81162 1.86796,-5.56589 3,-8.25 1.13204,-2.68411 2.40325,-5.30195 3.78125,-7.84375 1.378,-2.5418 2.89086,-5.02155 4.5,-7.40625 1.60914,-2.3847 3.29954,-4.69344 5.125,-6.90625 1.82546,-2.21281 3.78554,-4.31763 5.8125,-6.34375 2.02696,-2.02612 4.13012,-3.95662 6.34375,-5.78125 2.21363,-1.82463 4.52076,-3.5479 6.90625,-5.15625 2.38549,-1.60835 4.86373,-3.09147 7.40625,-4.46875 1.59981,-0.86661 3.2803,-1.60464 4.9375,-2.375 -19.40021,2.56036 -37.64465,6.98799 -54.6875,12.5 z"
         style="font-size:medium;font-style:normal;font-variant:normal;font-weight:normal;font-stretch:normal;text-indent:0;text-align:start;text-decoration:none;line-height:normal;letter-spacing:normal;word-spacing:normal;text-transform:none;direction:ltr;block-progression:tb;writing-mode:lr-tb;text-anchor:start;baseline-shift:baseline;color:#000000;fill:#000000;fill-opacity:1;stroke:none;stroke-width:30;marker:none;visibility:visible;display:inline;overflow:visible;enable-background:accumulate;font-family:Sans;-inkscape-font-specification:Sans" />
      <path
         inkscape:connector-curvature="0"
         d="m 340.75,405.625 c 99.20942,-0.38199 169.70076,57.01783 194.1875,80.15625 -26.90841,25.68436 -107.15461,95.18503 -190.21875,95.28125 -98.43999,0.11403 -156.19776,-47.81123 -203.84375,-94.4375 26.13013,-23.17115 100.63082,-80.61788 199.875,-81 z M 248.875,390.65625 C 162.37025,418.6337 108.28125,476 108.28125,476 l -10.0625,10.625 10.34375,10.3125 c 50.40062,50.27588 119.30687,114.26039 236.1875,114.125 121.36829,-0.14058 222.65625,-115.125 222.65625,-115.125 L 576.4375,486 l -8.875,-10.09375 c 0,0 -49.83869,-56.8405 -133.3125,-84.9375 0.96464,1.30403 1.99592,2.56124 2.90625,3.90625 2.0789,3.07158 4.03093,6.22874 5.8125,9.5 1.78157,3.27126 3.41032,6.64235 4.875,10.09375 1.46468,3.4514 2.74677,6.98176 3.875,10.59375 1.12823,3.61199 2.10278,7.30946 2.875,11.0625 0.77222,3.75304 1.35334,7.56294 1.75,11.4375 0.39666,3.87456 0.59222,7.80472 0.59375,11.78125 l -25.8125,0.0312 c -10e-4,-3.10453 -0.1627,-6.16609 -0.46875,-9.1875 -0.30605,-3.02141 -0.77888,-6.014 -1.375,-8.9375 -0.59612,-2.9235 -1.31609,-5.78295 -2.1875,-8.59375 -0.87141,-2.8108 -1.8681,-5.56668 -3,-8.25 -1.1319,-2.68332 -2.40363,-5.30271 -3.78125,-7.84375 -1.37762,-2.54104 -2.86021,-4.99102 -4.46875,-7.375 -1.60854,-2.38398 -3.33157,-4.69412 -5.15625,-6.90625 -1.82468,-2.21213 -3.75522,-4.31826 -5.78125,-6.34375 -2.02603,-2.02549 -4.1624,-3.95719 -6.375,-5.78125 -2.2126,-1.82406 -4.52187,-3.5484 -6.90625,-5.15625 -2.38438,-1.60785 -4.83363,-3.12316 -7.375,-4.5 -1.60981,-0.87215 -3.30079,-1.60039 -4.96875,-2.375 -12.39567,-1.65298 -25.29323,-2.55145 -38.65625,-2.5 -12.74879,0.0491 -25.1078,0.95352 -37.0625,2.53125 -1.6572,0.77036 -3.33769,1.50839 -4.9375,2.375 -2.54252,1.37728 -5.02076,2.8604 -7.40625,4.46875 -2.38549,1.60835 -4.69262,3.33162 -6.90625,5.15625 -2.21363,1.82463 -4.31679,3.75513 -6.34375,5.78125 -2.02696,2.02612 -3.98704,4.13094 -5.8125,6.34375 -1.82546,2.21281 -3.51586,4.52155 -5.125,6.90625 -1.60914,2.3847 -3.122,4.86445 -4.5,7.40625 -1.378,2.5418 -2.64921,5.15964 -3.78125,7.84375 -1.13204,2.68411 -2.12874,5.43838 -3,8.25 -0.87126,2.81162 -1.59184,5.66942 -2.1875,8.59375 -0.59566,2.92433 -1.06976,5.91524 -1.375,8.9375 -0.30524,3.02226 -0.46875,6.08211 -0.46875,9.1875 0,3.10538 0.16351,6.16524 0.46875,9.1875 0.30524,3.02226 0.77934,6.01317 1.375,8.9375 0.59566,2.92433 1.31624,5.78213 2.1875,8.59375 0.87126,2.81162 1.86796,5.56589 3,8.25 1.13204,2.68411 2.40325,5.30195 3.78125,7.84375 1.378,2.5418 2.89086,5.02155 4.5,7.40625 1.60914,2.3847 3.29954,4.66219 5.125,6.875 1.82546,2.21281 3.78554,4.34888 5.8125,6.375 2.02696,2.02612 4.13012,3.95662 6.34375,5.78125 2.21363,1.82463 4.52076,3.5479 6.90625,5.15625 2.38549,1.60835 4.86373,3.09147 7.40625,4.46875 2.54252,1.37728 5.15901,2.64984 7.84375,3.78125 2.68474,1.13141 5.43787,2.12925 8.25,3 2.81213,0.87075 5.66905,1.62345 8.59375,2.21875 2.9247,0.5953 5.91505,1.0387 8.9375,1.34375 3.02245,0.30505 6.08212,0.46875 9.1875,0.46875 3.10538,0 6.16524,-0.1637 9.1875,-0.46875 3.02226,-0.30505 6.01317,-0.74845 8.9375,-1.34375 2.92433,-0.5953 5.78213,-1.348 8.59375,-2.21875 2.81162,-0.87075 5.56589,-1.86859 8.25,-3 2.68411,-1.13141 5.30195,-2.40397 7.84375,-3.78125 2.5418,-1.37728 5.02155,-2.8604 7.40625,-4.46875 2.3847,-1.60835 4.69344,-3.33162 6.90625,-5.15625 2.21281,-1.82463 4.31763,-3.75513 6.34375,-5.78125 2.02612,-2.02612 3.95662,-4.16219 5.78125,-6.375 1.82463,-2.21281 3.5479,-4.4903 5.15625,-6.875 1.60835,-2.3847 3.09147,-4.86445 4.46875,-7.40625 1.37728,-2.5418 2.64984,-5.15964 3.78125,-7.84375 1.13141,-2.68411 2.12925,-5.43838 3,-8.25 0.87075,-2.81162 1.62345,-5.66942 2.21875,-8.59375 0.5953,-2.92433 1.0387,-5.91524 1.34375,-8.9375 0.30505,-3.02226 0.46875,-6.08212 0.46875,-9.1875 l 25.8125,0 c 0,3.9776 -0.19838,7.90548 -0.59375,11.78125 -0.39537,3.87577 -0.97883,7.68313 -1.75,11.4375 -0.77117,3.75437 -1.71635,7.4491 -2.84375,11.0625 -1.1274,3.6134 -2.44219,7.17214 -3.90625,10.625 -1.46406,3.45286 -3.09385,6.821 -4.875,10.09375 -1.78115,3.27275 -3.70258,6.42693 -5.78125,9.5 -2.07867,3.07307 -4.29962,6.05242 -6.65625,8.90625 -2.35663,2.85383 -4.85374,5.60374 -7.46875,8.21875 -2.61501,2.61501 -5.36492,5.08087 -8.21875,7.4375 -2.85383,2.35663 -5.83318,4.60883 -8.90625,6.6875 -3.07307,2.07867 -6.22725,4.0001 -9.5,5.78125 -3.27275,1.78115 -6.64089,3.41094 -10.09375,4.875 -3.45286,1.46406 -7.0116,2.7476 -10.625,3.875 -3.6134,1.1274 -7.27688,2.10383 -11.03125,2.875 -3.75437,0.77117 -7.59298,1.35463 -11.46875,1.75 -3.87577,0.39537 -7.80365,0.59375 -11.78125,0.59375 -3.9776,0 -7.90529,-0.19838 -11.78125,-0.59375 -3.87596,-0.39537 -7.71402,-0.97883 -11.46875,-1.75 -3.75473,-0.77117 -7.41734,-1.7476 -11.03125,-2.875 -3.61391,-1.1274 -7.17151,-2.41094 -10.625,-3.875 -3.45349,-1.46406 -6.82028,-3.09385 -10.09375,-4.875 -3.27347,-1.78115 -6.45739,-3.70258 -9.53125,-5.78125 -3.07386,-2.07867 -6.02035,-4.33087 -8.875,-6.6875 -2.85465,-2.35663 -5.6029,-4.82249 -8.21875,-7.4375 -2.61585,-2.61501 -5.1113,-5.36492 -7.46875,-8.21875 -2.35745,-2.85383 -4.57679,-5.83318 -6.65625,-8.90625 -2.07946,-3.07307 -4.03063,-6.22725 -5.8125,-9.5 -1.78187,-3.27275 -3.41031,-6.64089 -4.875,-10.09375 -1.46469,-3.45286 -2.74709,-7.0116 -3.875,-10.625 -1.12791,-3.6134 -2.10346,-7.30813 -2.875,-11.0625 -0.77154,-3.75437 -1.35443,-7.56173 -1.75,-11.4375 -0.39557,-3.87577 -0.59375,-7.80365 -0.59375,-11.78125 0,-3.9776 0.19818,-7.90548 0.59375,-11.78125 0.39557,-3.87577 0.97846,-7.71438 1.75,-11.46875 0.77154,-3.75437 1.74709,-7.41785 2.875,-11.03125 1.12791,-3.6134 2.41031,-7.17214 3.875,-10.625 1.46469,-3.45286 3.09313,-6.821 4.875,-10.09375 1.78187,-3.27275 3.73304,-6.42693 5.8125,-9.5 0.99356,-1.4683 2.12931,-2.83059 3.1875,-4.25 z"
         style="font-size:medium;font-style:normal;font-variant:normal;font-weight:normal;font-stretch:normal;text-indent:0;text-align:start;text-decoration:none;line-height:normal;letter-spacing:normal;word-spacing:normal;text-transform:none;direction:ltr;block-progression:tb;writing-mode:lr-tb;text-anchor:start;baseline-shift:baseline;color:#000000;fill:#000000;fill-opacity:1;stroke:none;stroke-width:30;marker:none;visibility:visible;display:inline;overflow:visible;enable-background:accumulate;font-family:Sans;-inkscape-font-specification:Sans"
         id="path2985" />
      <path
         inkscape:connector-curvature="0"
         id="path3761"
         d="m 341.42418,424.18592 c -19.26444,0 -35.1875,15.95431 -35.1875,35.21875 0,19.26444 15.92306,35.1875 35.1875,35.1875 19.26444,0 35.21875,-15.92306 35.21875,-35.1875 -0.007,-19.25937 -15.95938,-35.21875 -35.21875,-35.21875 z m 0,30 c 3.05024,0 5.21758,2.16851 5.21875,5.21875 0,3.05124 -2.16751,5.1875 -5.21875,5.1875 -3.05124,0 -5.1875,-2.13626 -5.1875,-5.1875 0,-3.05124 2.13626,-5.21875 5.1875,-5.21875 z"
         style="font-size:medium;font-style:normal;font-variant:normal;font-weight:normal;font-stretch:normal;text-indent:0;text-align:start;text-decoration:none;line-height:normal;letter-spacing:normal;word-spacing:normal;text-transform:none;direction:ltr;block-progression:tb;writing-mode:lr-tb;text-anchor:start;baseline-shift:baseline;color:#000000;fill:#000000;fill-opacity:1;stroke:none;stroke-width:30;marker:none;visibility:visible;display:inline;overflow:visible;enable-background:accumulate;font-family:Sans;-inkscape-font-specification:Sans" />
    </g>
  </g>
</svg>
