<?xml version="1.0" encoding="UTF-8" standalone="no"?>
<!-- Created with Inkscape (http://www.inkscape.org/) -->
<svg id="svg2" xmlns:rdf="http://www.w3.org/1999/02/22-rdf-syntax-ns#" xmlns="http://www.w3.org/2000/svg" height="100%" viewBox="0 0 197.60715 197.60718" width="100%" version="1.1" xmlns:cc="http://creativecommons.org/ns#" xmlns:dc="http://purl.org/dc/elements/1.1/">
<metadata id="metadata7">
<rdf:RDF>
<cc:Work rdf:about="">
<dc:format>image/svg+xml</dc:format>
<dc:type rdf:resource="http://purl.org/dc/dcmitype/StillImage"/>
<dc:title/>
</cc:Work>
</rdf:RDF>
</metadata>
<g id="layer1" transform="translate(-426.24553,-248.9464)">
<path id="path3796" style="enable-background:accumulate;color:#000000;" fill="#90d4ff" d="m525.05,248.95c-54.569,0-98.804,44.234-98.804,98.804,0,54.569,44.234,98.804,98.804,98.804,54.569,0,98.804-44.234,98.804-98.804v-0.0426c-0.021-54.555-44.249-98.761-98.804-98.761z"/>
<path id="path3792" style="enable-background:accumulate;color:#000000;" fill="#FFF" d="M94.25,41.719c-15.007,0.102-35.177,8.658-47.812,19.187-16.577,14.29-29.94,32.451-45.626,50.624,5.7833,44.92,41.728,80.39,86.876,85.44,0.339-3.57,0.613-7.16,0.843-10.81,1.055-16.75,3.64-35.04,11.909-48.85,8.26-13.8,22.92-24.19,42.81-21.47,12.39,1.7,24.96,11.86,32.97,19.82-0.32-14.29-10.98-36.023-28.47-45.441,8.46-33.389-27.86-46.7-50.562-48.375-0.951-0.07-1.938-0.132-2.938-0.125z" transform="translate(426.24553,248.9464)"/>
</g>
</svg>
