<?xml version="1.0" encoding="UTF-8" standalone="no"?>
<!-- Created with Inkscape (http://www.inkscape.org/) -->

<svg
   xmlns:dc="http://purl.org/dc/elements/1.1/"
   xmlns:cc="http://creativecommons.org/ns#"
   xmlns:rdf="http://www.w3.org/1999/02/22-rdf-syntax-ns#"
   xmlns:svg="http://www.w3.org/2000/svg"
   xmlns="http://www.w3.org/2000/svg"
   xmlns:sodipodi="http://sodipodi.sourceforge.net/DTD/sodipodi-0.dtd"
   xmlns:inkscape="http://www.inkscape.org/namespaces/inkscape"
   id="svg2"
   version="1.1"
   inkscape:version="0.48.4 r9939"
   inkscape:export-filename="C:\Users\quasiyoke\Desktop\Keys of Peace.png"
   inkscape:export-xdpi="155.24001"
   inkscape:export-ydpi="155.24001"
   sodipodi:docname="logo.svg"
   viewBox="0 0 580 580"
   width="100%"
   height="100%">
  <defs
     id="defs4" />
  <sodipodi:namedview
     id="base"
     pagecolor="#ffffff"
     bordercolor="#666666"
     borderopacity="1.0"
     inkscape:pageopacity="0.0"
     inkscape:pageshadow="2"
     inkscape:zoom="1.4"
     inkscape:cx="330.66661"
     inkscape:cy="315.92643"
     inkscape:document-units="px"
     inkscape:current-layer="layer1"
     showgrid="false"
     fit-margin-top="0"
     fit-margin-left="0"
     fit-margin-right="0"
     fit-margin-bottom="0"
     inkscape:window-width="1280"
     inkscape:window-height="775"
     inkscape:window-x="0"
     inkscape:window-y="0"
     inkscape:window-maximized="1" />
  <metadata
     id="metadata7">
    <rdf:RDF>
      <cc:Work
         rdf:about="">
        <dc:format>image/svg+xml</dc:format>
        <dc:type
           rdf:resource="http://purl.org/dc/dcmitype/StillImage" />
        <dc:title></dc:title>
      </cc:Work>
    </rdf:RDF>
  </metadata>
  <g
     inkscape:label="Layer 1"
     inkscape:groupmode="layer"
     id="layer1"
     transform="translate(-65.53125,-180.375)">
    <path
       style="color:#000000;fill:#90d4ff;fill-opacity:1;stroke:none;stroke-width:0.78650624;marker:none;visibility:visible;display:inline;overflow:visible;enable-background:accumulate"
       d="m 355.40625,180.375 c -160.09837,0 -289.875,129.77663 -289.875,289.875 0,160.09837 129.77663,289.875 289.875,289.875 160.09837,0 289.875,-129.77663 289.875,-289.875 l 0,-0.125 c -0.0615,-160.05486 -129.82013,-289.75 -289.875,-289.75 z"
       id="path3796"
       inkscape:connector-curvature="0" />
    <path
       id="path3792"
       transform="translate(65.53125,180.375)"
       style="color:#000000;fill:#ffffff;fill-opacity:1;stroke:none;stroke-width:0.78650624;marker:none;visibility:visible;display:inline;overflow:visible;enable-background:accumulate"
       d="m 195.65625,429.15625 c -17.02316,0 -30.8125,20.83591 -30.8125,46.53125 0,25.69534 13.78934,46.53125 30.8125,46.53125 15.08361,0 27.61727,-16.36696 30.28125,-37.96875 l 176.59375,0 1.1875,19.75 8.0625,0 c 1.34688,0 0.7671,-2.375 2.59375,-2.375 l 10.96875,0 c 1.82664,0 1.24687,2.375 2.59375,2.375 l 8.09375,0 1.15625,-19.75 6.78125,-0.5625 0,-17.5 -6.78125,-0.59375 -1.15625,-21.21875 -8.09375,0 c -1.34688,0 -0.76711,2.375 -2.59375,2.375 l -10.96875,0 c -1.82665,0 -1.24687,-2.375 -2.59375,-2.375 l -8.0625,0 -1.1875,21.21875 -176.78125,0 c -3.0554,-20.83867 -15.36866,-36.4375 -30.09375,-36.4375 z m 0,20.67961 c 8.4922,0 15.37629,11.40317 15.37629,25.45016 0,14.04699 -6.88409,25.42722 -15.37629,25.42722 -8.49219,0 -15.37629,-11.38023 -15.37629,-25.42722 0,-14.04699 6.8841,-25.45016 15.37629,-25.45016 z M 191.46875,54.375 c 2.91678,0.0487 5.86714,0.9304 8.59375,2.84375 6.8858,4.83198 5.4389,17.86882 4.3125,32.375 -1.12449,14.48149 5.30312,32.70864 10.90625,41.21875 8.2689,12.55892 23.44684,24.85641 48.5625,26.5625 17.28302,1.17403 32.86455,-5.21601 50.03125,-1.75 15.6252,3.15479 32.82421,17.62709 40.15625,28.9375 23.93486,-17.05366 35.57152,-39.54159 53.25,-54.78125 8.1655,-6.80458 21.53463,-12.24266 30.75,-11.5625 13.75405,1.01515 35.75033,9.08407 30.625,29.3125 10.5955,5.70613 17.05903,18.87514 17.25,27.53125 -4.85285,-4.82047 -12.46319,-10.97191 -19.96875,-12 -12.04757,-1.65026 -20.92903,4.63525 -25.9375,13 -5.00847,8.36475 -6.57954,19.44584 -7.21875,29.59375 -5.18217,82.27 -56.97146,129.02506 -103.625,136.34375 -47.70863,7.4842 -74.9495,19.45939 -100.34375,56.71875 -4.88364,7.16546 -8.6722,12.34433 -14.125,9.8125 -3.13364,-1.455 -5.09771,-4.43418 -1.8125,-10.21875 -2.90506,4.82047 -12.8377,10.75286 -19.625,6.71875 -6.2741,-3.7291 -7.15425,-12.10889 -1.5625,-18.125 -9.55792,8.09922 -16.25788,6.74939 -21.09375,3.84375 -4.61329,-2.77189 -7.68188,-5.68956 -8.5625,-12.5625 -0.91003,-7.10255 5.1433,-13.28457 11.6875,-16.5625 -17.08449,0 -24.01175,-18.97964 -5.96875,-33.34375 18.63916,-14.83871 86.72351,-1.55742 107.40625,-28.28125 0,0 -10.22253,5.58961 -15.21875,-0.125 -4.99623,-5.7146 -1.34353,-11.63831 2.6875,-15.6875 -8.19237,5.47723 -16.14772,7.1595 -21.84375,2.71875 -5.69603,-4.44075 -8.66386,-11.86662 -0.46875,-20.71875 -10.41222,9.33059 -21.2436,8.51917 -27.125,5 -5.88141,-3.51916 -12.13696,-12.71705 -0.375,-27.34375 -8.69213,7.55186 -22.8526,8.67388 -30.46875,1.15625 -7.61615,-7.51764 -4.85542,-18.02916 1.90625,-25.25 -14.51259,2.04625 -27.78238,4.14135 -33.4375,-6.46875 -5.65513,-10.61009 -4.64406,-20.04005 6,-30 -6.55584,1.88788 -13.52073,-1.34633 -16.84375,-3.5625 -5.09991,-3.40121 -8.07506,-9.4472 -7.71875,-17 0.35632,-7.55279 7.96679,-12.36564 20.5,-12.25 0,0 -8.06878,-2.19824 -13.9375,-7.53125 -5.86873,-5.333 -9.97795,-15.28078 -2.28125,-22.96875 7.69671,-7.68797 24.28125,-2.53125 24.28125,-2.53125 0,0 -14.62476,-8.5748 -15.3125,-17.71875 -0.68773,-9.14396 2.68131,-17.44723 12.6875,-19.65625 10.0062,-2.20903 21.0625,8.65625 21.0625,8.65625 0,0 -7.70441,-16.52607 -3.375,-24.84375 2.97646,-5.7184 9.17684,-9.60716 15.59375,-9.5 z"
       inkscape:connector-curvature="0"
       sodipodi:nodetypes="ssscccssssccccccsssscccssssssssssssccsccsssssscscsscscscscscscscsscsscsscss" />
  </g>
</svg>
