<?xml version="1.0" encoding="UTF-8" standalone="no"?>
<!-- Created with Inkscape (http://www.inkscape.org/) -->
<svg id="svg2" xmlns:rdf="http://www.w3.org/1999/02/22-rdf-syntax-ns#" height="100%" xmlns="http://www.w3.org/2000/svg" viewBox="0 0 580 580" width="100%" version="1.1" xmlns:cc="http://creativecommons.org/ns#" xmlns:dc="http://purl.org/dc/elements/1.1/">
<metadata id="metadata7">
<rdf:RDF>
<cc:Work rdf:about="">
<dc:format>image/svg+xml</dc:format>
<dc:type rdf:resource="http://purl.org/dc/dcmitype/StillImage"/>
<dc:title/>
</cc:Work>
</rdf:RDF>
</metadata>
<g id="layer1" transform="translate(-65.53125,-180.375)">
<path id="path3796" style="enable-background:accumulate;color:#000000;" fill="#90d4ff" d="m355.41,180.38c-160.1,0-289.88,129.78-289.88,289.88s129.78,289.88,289.88,289.88,289.88-129.78,289.88-289.88v-0.125c-0.0615-160.05-129.82-289.75-289.88-289.75z"/>
<path id="path3792" style="enable-background:accumulate;color:#000000;" d="m195.66,429.16c-17.023,0-30.812,20.836-30.812,46.531s13.789,46.531,30.812,46.531c15.084,0,27.617-16.367,30.281-37.969h176.59l1.1875,19.75h8.0625c1.3469,0,0.7671-2.375,2.5938-2.375h10.969c1.8266,0,1.2469,2.375,2.5938,2.375h8.0938l1.1562-19.75,6.7812-0.5625v-17.5l-6.7812-0.59375-1.1562-21.219h-8.0938c-1.3469,0-0.76711,2.375-2.5938,2.375h-10.969c-1.8266,0-1.2469-2.375-2.5938-2.375h-8.0625l-1.1875,21.219h-176.78c-3.0554-20.839-15.369-36.438-30.094-36.438zm0,20.68c8.4922,0,15.376,11.403,15.376,25.45s-6.8841,25.427-15.376,25.427c-8.4922,0-15.376-11.38-15.376-25.427s6.8841-25.45,15.376-25.45zm-4.19-395.46c2.9168,0.0487,5.8671,0.9304,8.5938,2.8438,6.8858,4.832,5.4389,17.869,4.3125,32.375-1.1245,14.481,5.3031,32.709,10.906,41.219,8.2689,12.559,23.447,24.856,48.562,26.562,17.283,1.174,32.865-5.216,50.031-1.75,15.625,3.1548,32.824,17.627,40.156,28.938,23.935-17.054,35.572-39.542,53.25-54.781,8.1655-6.8046,21.535-12.243,30.75-11.562,13.754,1.0152,35.75,9.0841,30.625,29.312,10.596,5.7061,17.059,18.875,17.25,27.531-4.8528-4.8205-12.463-10.972-19.969-12-12.048-1.6503-20.929,4.6352-25.938,13-5.0085,8.3648-6.5795,19.446-7.2188,29.594-5.1822,82.27-56.971,129.03-103.62,136.34-47.709,7.4842-74.95,19.459-100.34,56.719-4.8836,7.1655-8.6722,12.344-14.125,9.8125-3.1336-1.455-5.0977-4.4342-1.8125-10.219-2.9051,4.8205-12.838,10.753-19.625,6.7188-6.2741-3.7291-7.1542-12.109-1.5625-18.125-9.5579,8.0992-16.258,6.7494-21.094,3.8438-4.6133-2.7719-7.6819-5.6896-8.5625-12.562-0.91003-7.1026,5.1433-13.285,11.688-16.562-17.084,0-24.012-18.98-5.9688-33.344,18.639-14.839,86.724-1.5574,107.41-28.281,0,0-10.223,5.5896-15.219-0.125-4.9962-5.7146-1.3435-11.638,2.6875-15.688-8.1924,5.4772-16.148,7.1595-21.844,2.7188-5.696-4.4408-8.6639-11.867-0.46875-20.719-10.412,9.3306-21.244,8.5192-27.125,5-5.8814-3.5192-12.137-12.717-0.375-27.344-8.6921,7.5519-22.853,8.6739-30.469,1.1562-7.6162-7.5176-4.8554-18.029,1.9062-25.25-14.513,2.0462-27.782,4.1414-33.438-6.4688-5.6551-10.61-4.6441-20.04,6-30-6.5558,1.8879-13.521-1.3463-16.844-3.5625-5.0999-3.4012-8.0751-9.4472-7.7188-17,0.35632-7.5528,7.9668-12.366,20.5-12.25,0,0-8.0688-2.1982-13.938-7.5312-5.8687-5.333-9.978-15.281-2.2812-22.969,7.6967-7.688,24.281-2.5312,24.281-2.5312s-14.625-8.5748-15.312-17.719c-0.68773-9.144,2.6813-17.447,12.688-19.656,10.006-2.209,21.062,8.6562,21.062,8.6562s-7.7044-16.526-3.375-24.844c2.9765-5.7184,9.1768-9.6072,15.594-9.5z" transform="translate(65.53125,180.375)" fill="#FFF"/>
</g>
</svg>
