<?xml version="1.0" encoding="UTF-8" standalone="no"?>
<!-- Created with Inkscape (http://www.inkscape.org/) -->
<svg id="svg2" xmlns:rdf="http://www.w3.org/1999/02/22-rdf-syntax-ns#" xmlns="http://www.w3.org/2000/svg" height="500" width="500" version="1.1" xmlns:cc="http://creativecommons.org/ns#" xmlns:dc="http://purl.org/dc/elements/1.1/">
<metadata id="metadata7">
<rdf:RDF>
<cc:Work rdf:about="">
<dc:format>image/svg+xml</dc:format>
<dc:type rdf:resource="http://purl.org/dc/dcmitype/StillImage"/>
<dc:title/>
</cc:Work>
</rdf:RDF>
</metadata>
<g id="layer1" fill="#000" transform="translate(0,-552.36218)">
<path id="path2993" d="m365.71,393.57a96.429,96.429,0,1,1,-192.86,0,96.429,96.429,0,1,1,192.86,0z" transform="matrix(0.70623137,0,0,0.70623137,59.18748,628.46058)"/>
<path id="path3769" style="baseline-shift:baseline;block-progression:tb;color:#000000;direction:ltr;text-indent:0;text-align:start;enable-background:accumulate;text-transform:none;" d="m249.37,733.63c-73.948,0-137.33,46.962-161.88,112.56l49.767,17.656c17.056-45.286,60.643-77.244,112.11-77.244,53.13,0,97.838,34.046,113.66,81.658l49.712-17.959c-23.4-67.75-87.88-116.68-163.37-116.68z"/>
<path id="path3771" style="baseline-shift:baseline;block-progression:tb;color:#000000;direction:ltr;text-indent:0;text-align:start;enable-background:accumulate;text-transform:none;" d="m249.37,630.21c-102.1,0-191.5,55.77-239.29,138.43l45.927,25.96c38.523-66.679,110.55-111.4,193.36-111.4,83.875,0,156.71,45.883,194.88,113.99l45.684-26.235c-47.46-83.93-137.52-140.75-240.56-140.75z"/>
</g>
</svg>
